<svg xmlns="http://www.w3.org/2000/svg" xmlns:xlink="http://www.w3.org/1999/xlink" width="1920" zoomAndPan="magnify" viewBox="0 0 1440 809.999993" height="1080" preserveAspectRatio="xMidYMid meet" version="1.0"><defs><g/><clipPath id="e2cff615ac"><path d="M 176.402344 391.816406 L 1263.554688 391.816406 L 1263.554688 406.933594 L 176.402344 406.933594 Z M 176.402344 391.816406 " clip-rule="nonzero"/></clipPath><clipPath id="85c8b06498"><path d="M 180.230469 391.875 L 1259.820312 399.375 C 1261.890625 399.390625 1263.554688 401.078125 1263.546875 403.148438 C 1263.539062 405.21875 1261.84375 406.882812 1259.773438 406.875 L 180.1875 399.375 C 178.109375 399.359375 176.445312 397.671875 176.460938 395.601562 C 176.472656 393.535156 178.160156 391.859375 180.230469 391.875 Z M 180.230469 391.875 " clip-rule="nonzero"/></clipPath><clipPath id="0f39bc5e67"><path d="M 0.402344 0.816406 L 1087.554688 0.816406 L 1087.554688 15.933594 L 0.402344 15.933594 Z M 0.402344 0.816406 " clip-rule="nonzero"/></clipPath><clipPath id="ce69b998fc"><path d="M 4.230469 0.875 L 1083.820312 8.375 C 1085.890625 8.390625 1087.554688 10.078125 1087.546875 12.148438 C 1087.539062 14.21875 1085.84375 15.882812 1083.773438 15.875 L 4.1875 8.375 C 2.109375 8.359375 0.445312 6.671875 0.460938 4.601562 C 0.472656 2.535156 2.160156 0.859375 4.230469 0.875 Z M 4.230469 0.875 " clip-rule="nonzero"/></clipPath><clipPath id="511d4ec0c5"><rect x="0" width="1088" y="0" height="16"/></clipPath><clipPath id="8b0595806b"><rect x="0" width="193" y="0" height="291"/></clipPath></defs><g fill="#023d00" fill-opacity="1"><g transform="translate(73.255315, 318.749001)"><g><path d="M 164.484375 -144.234375 C 164.484375 -135.398438 163.066406 -127.484375 160.234375 -120.484375 C 157.398438 -113.492188 152.941406 -107.582031 146.859375 -102.75 C 140.773438 -97.914062 132.859375 -94.164062 123.109375 -91.5 C 113.367188 -88.832031 101.5 -87.5 87.5 -87.5 L 65 -87.5 L 65 -39.25 C 65 -33.082031 65.375 -28.039062 66.125 -24.125 C 66.875 -20.207031 68.457031 -17.164062 70.875 -15 C 73.289062 -12.832031 76.789062 -11.375 81.375 -10.625 C 85.957031 -9.875 92 -9.5 99.5 -9.5 L 99.5 0 L 11.25 0 L 11.25 -9.5 C 17.082031 -9.664062 21.789062 -10.164062 25.375 -11 C 28.957031 -11.832031 31.75 -13.25 33.75 -15.25 C 35.75 -17.25 37.082031 -20.082031 37.75 -23.75 C 38.414062 -27.414062 38.75 -32.164062 38.75 -38 L 38.75 -154.484375 C 38.75 -160.316406 38.457031 -165.023438 37.875 -168.609375 C 37.289062 -172.191406 36.125 -175.023438 34.375 -177.109375 C 32.625 -179.191406 30.082031 -180.609375 26.75 -181.359375 C 23.414062 -182.109375 19.082031 -182.648438 13.75 -182.984375 L 13.75 -192.484375 L 92.25 -192.484375 C 115.238281 -192.484375 133.023438 -188.234375 145.609375 -179.734375 C 158.191406 -171.234375 164.484375 -159.398438 164.484375 -144.234375 Z M 65 -100 L 82.75 -100 C 99.414062 -100 111.785156 -103.207031 119.859375 -109.625 C 127.941406 -116.039062 131.984375 -126.578125 131.984375 -141.234375 C 131.984375 -155.398438 128.773438 -165.523438 122.359375 -171.609375 C 115.953125 -177.691406 105.914062 -180.734375 92.25 -180.734375 L 69.25 -180.734375 C 66.414062 -180.734375 65 -179.316406 65 -176.484375 Z M 65 -100 "/></g></g></g><g fill="#023d00" fill-opacity="1"><g transform="translate(244.998151, 318.749001)"><g><path d="M 65 -47.25 C 65 -38.914062 65.332031 -32.332031 66 -27.5 C 66.664062 -22.664062 67.957031 -18.914062 69.875 -16.25 C 71.789062 -13.582031 74.539062 -11.832031 78.125 -11 C 81.707031 -10.164062 86.414062 -9.664062 92.25 -9.5 L 92.25 0 L 11.25 0 L 11.25 -9.5 C 17.082031 -9.664062 21.789062 -10.207031 25.375 -11.125 C 28.957031 -12.039062 31.75 -13.75 33.75 -16.25 C 35.75 -18.75 37.082031 -22.289062 37.75 -26.875 C 38.414062 -31.457031 38.75 -37.664062 38.75 -45.5 L 38.75 -146.984375 C 38.75 -153.984375 38.457031 -159.773438 37.875 -164.359375 C 37.289062 -168.941406 36.125 -172.566406 34.375 -175.234375 C 32.625 -177.898438 30.082031 -179.773438 26.75 -180.859375 C 23.414062 -181.941406 19.082031 -182.648438 13.75 -182.984375 L 13.75 -192.484375 L 89.75 -192.484375 L 89.75 -182.984375 C 84.414062 -182.816406 80.125 -182.148438 76.875 -180.984375 C 73.625 -179.816406 71.125 -177.859375 69.375 -175.109375 C 67.625 -172.359375 66.457031 -168.566406 65.875 -163.734375 C 65.289062 -158.898438 65 -152.734375 65 -145.234375 Z M 65 -47.25 "/></g></g></g><g fill="#023d00" fill-opacity="1"><g transform="translate(348.751399, 318.749001)"><g/></g></g><g fill="#023d00" fill-opacity="1"><g transform="translate(420.498389, 318.749001)"><g/></g></g><g fill="#023d00" fill-opacity="1"><g transform="translate(492.24538, 318.749001)"><g/></g></g><g fill="#023d00" fill-opacity="1"><g transform="translate(564.001388, 318.749001)"><g><path d="M 173.484375 2.5 L 54.75 -153.984375 L 53.75 -153.984375 L 53.75 -47.25 C 53.75 -38.914062 54.039062 -32.332031 54.625 -27.5 C 55.207031 -22.664062 56.375 -18.914062 58.125 -16.25 C 59.875 -13.582031 62.375 -11.832031 65.625 -11 C 68.875 -10.164062 73.164062 -9.664062 78.5 -9.5 L 78.5 0 L 11.25 0 L 11.25 -9.5 C 17.082031 -9.664062 21.789062 -10.207031 25.375 -11.125 C 28.957031 -12.039062 31.75 -13.75 33.75 -16.25 C 35.75 -18.75 37.082031 -22.289062 37.75 -26.875 C 38.414062 -31.457031 38.75 -37.664062 38.75 -45.5 L 38.75 -146.984375 C 38.75 -153.984375 38.457031 -159.773438 37.875 -164.359375 C 37.289062 -168.941406 36.125 -172.566406 34.375 -175.234375 C 32.625 -177.898438 30.082031 -179.773438 26.75 -180.859375 C 23.414062 -181.941406 19.082031 -182.648438 13.75 -182.984375 L 13.75 -192.484375 L 63.25 -192.484375 L 172.484375 -46.75 L 173.484375 -46.75 L 173.484375 -145.234375 C 173.484375 -153.398438 173.191406 -159.941406 172.609375 -164.859375 C 172.023438 -169.773438 170.859375 -173.566406 169.109375 -176.234375 C 167.359375 -178.898438 164.859375 -180.648438 161.609375 -181.484375 C 158.359375 -182.316406 154.066406 -182.816406 148.734375 -182.984375 L 148.734375 -192.484375 L 215.984375 -192.484375 L 215.984375 -182.984375 C 210.148438 -182.816406 205.441406 -182.273438 201.859375 -181.359375 C 198.273438 -180.441406 195.484375 -178.734375 193.484375 -176.234375 C 191.484375 -173.734375 190.148438 -170.148438 189.484375 -165.484375 C 188.816406 -160.816406 188.484375 -154.648438 188.484375 -146.984375 L 188.484375 2.5 Z M 173.484375 2.5 "/></g></g></g><g fill="#023d00" fill-opacity="1"><g transform="translate(789.491982, 318.749001)"><g><path d="M 180.484375 -77.5 C 180.484375 -64.332031 179.191406 -52.75 176.609375 -42.75 C 174.023438 -32.75 169.859375 -24.414062 164.109375 -17.75 C 158.359375 -11.082031 150.898438 -6.039062 141.734375 -2.625 C 132.566406 0.789062 121.488281 2.5 108.5 2.5 C 96.164062 2.5 85.414062 1.289062 76.25 -1.125 C 67.082031 -3.539062 59.414062 -7.539062 53.25 -13.125 C 47.082031 -18.707031 42.5 -26 39.5 -35 C 36.5 -44 35 -55.082031 35 -68.25 L 35 -134.234375 C 35 -146.566406 34.707031 -156.066406 34.125 -162.734375 C 33.539062 -169.398438 31.832031 -174.316406 29 -177.484375 C 27 -179.648438 24.289062 -181.109375 20.875 -181.859375 C 17.457031 -182.609375 12.914062 -182.984375 7.25 -182.984375 L 7.25 -192.484375 L 92.5 -192.484375 L 92.5 -182.984375 C 86.832031 -182.984375 82.25 -182.648438 78.75 -181.984375 C 75.25 -181.316406 72.5 -179.648438 70.5 -176.984375 C 68.164062 -173.984375 66.664062 -169.191406 66 -162.609375 C 65.332031 -156.023438 65 -146.566406 65 -134.234375 L 65 -66.25 C 65 -57.75 65.875 -50.207031 67.625 -43.625 C 69.375 -37.039062 72.25 -31.457031 76.25 -26.875 C 80.25 -22.289062 85.457031 -18.832031 91.875 -16.5 C 98.289062 -14.164062 106.164062 -13 115.5 -13 C 132.15625 -13 144.648438 -17.625 152.984375 -26.875 C 161.316406 -36.125 165.484375 -49.75 165.484375 -67.75 L 165.484375 -127.984375 C 165.484375 -142.816406 164.898438 -154.066406 163.734375 -161.734375 C 162.566406 -169.398438 160.398438 -174.816406 157.234375 -177.984375 C 154.898438 -180.148438 151.984375 -181.523438 148.484375 -182.109375 C 144.984375 -182.691406 140.648438 -182.984375 135.484375 -182.984375 L 135.484375 -192.484375 L 207.984375 -192.484375 L 207.984375 -182.984375 C 202.648438 -182.984375 198.273438 -182.566406 194.859375 -181.734375 C 191.441406 -180.898438 188.734375 -179.066406 186.734375 -176.234375 C 184.234375 -172.734375 182.566406 -167.273438 181.734375 -159.859375 C 180.898438 -152.441406 180.484375 -141.816406 180.484375 -127.984375 Z M 180.484375 -77.5 "/></g></g></g><g fill="#023d00" fill-opacity="1"><g transform="translate(1004.733023, 318.749001)"><g><path d="M 196.484375 -144.734375 L 186.234375 -144.734375 C 185.734375 -151.898438 184.566406 -157.898438 182.734375 -162.734375 C 180.898438 -167.566406 178.273438 -171.359375 174.859375 -174.109375 C 171.441406 -176.859375 167.148438 -178.816406 161.984375 -179.984375 C 156.816406 -181.148438 150.648438 -181.734375 143.484375 -181.734375 C 137.316406 -181.734375 132.359375 -181.609375 128.609375 -181.359375 C 124.867188 -181.109375 122 -180.648438 120 -179.984375 C 118 -179.316406 116.707031 -178.523438 116.125 -177.609375 C 115.539062 -176.691406 115.25 -175.484375 115.25 -173.984375 L 115.25 -40.25 C 115.25 -34.914062 115.625 -30.332031 116.375 -26.5 C 117.125 -22.664062 118.617188 -19.539062 120.859375 -17.125 C 123.109375 -14.707031 126.359375 -12.875 130.609375 -11.625 C 134.859375 -10.375 140.484375 -9.664062 147.484375 -9.5 L 147.484375 0 L 53 0 L 53 -9.5 C 60 -9.664062 65.664062 -10.375 70 -11.625 C 74.332031 -12.875 77.625 -14.707031 79.875 -17.125 C 82.125 -19.539062 83.625 -22.664062 84.375 -26.5 C 85.125 -30.332031 85.5 -34.914062 85.5 -40.25 L 85.5 -173.984375 C 85.5 -175.484375 85.207031 -176.691406 84.625 -177.609375 C 84.039062 -178.523438 82.875 -179.316406 81.125 -179.984375 C 79.375 -180.648438 76.914062 -181.109375 73.75 -181.359375 C 70.582031 -181.609375 66.332031 -181.734375 61 -181.734375 C 54.5 -181.734375 48.457031 -181.484375 42.875 -180.984375 C 37.289062 -180.484375 32.457031 -179.023438 28.375 -176.609375 C 24.289062 -174.191406 21 -170.484375 18.5 -165.484375 C 16 -160.484375 14.664062 -153.566406 14.5 -144.734375 L 5.25 -144.734375 L 5.25 -192.484375 L 193.984375 -192.484375 Z M 196.484375 -144.734375 "/></g></g></g><g fill="#023d00" fill-opacity="1"><g transform="translate(1205.474653, 318.749001)"><g><path d="M 14.5 -58.75 L 23.75 -58.75 C 24.914062 -51.25 27.125 -44.5 30.375 -38.5 C 33.625 -32.5 37.707031 -27.414062 42.625 -23.25 C 47.539062 -19.082031 53.207031 -15.875 59.625 -13.625 C 66.039062 -11.375 73 -10.25 80.5 -10.25 C 92.832031 -10.25 102.582031 -13.164062 109.75 -19 C 116.914062 -24.832031 120.5 -32.75 120.5 -42.75 C 120.5 -46.914062 119.789062 -50.75 118.375 -54.25 C 116.957031 -57.75 114.582031 -61.125 111.25 -64.375 C 107.914062 -67.625 103.457031 -70.832031 97.875 -74 C 92.289062 -77.164062 85.25 -80.582031 76.75 -84.25 C 66.414062 -88.75 57.75 -93.082031 50.75 -97.25 C 43.75 -101.414062 38.164062 -105.75 34 -110.25 C 29.832031 -114.75 26.875 -119.535156 25.125 -124.609375 C 23.375 -129.691406 22.5 -135.484375 22.5 -141.984375 C 22.5 -149.648438 23.875 -156.734375 26.625 -163.234375 C 29.375 -169.734375 33.25 -175.359375 38.25 -180.109375 C 43.25 -184.859375 49.164062 -188.523438 56 -191.109375 C 62.832031 -193.691406 70.332031 -194.984375 78.5 -194.984375 C 85.832031 -194.984375 92.664062 -193.816406 99 -191.484375 C 105.332031 -189.148438 111.75 -185.398438 118.25 -180.234375 L 124.734375 -191.484375 L 130.484375 -191.484375 L 133.234375 -141.734375 L 124 -141.734375 C 120 -155.398438 114.207031 -165.566406 106.625 -172.234375 C 99.039062 -178.898438 89.914062 -182.234375 79.25 -182.234375 C 69.082031 -182.234375 61 -179.734375 55 -174.734375 C 49 -169.734375 46 -162.984375 46 -154.484375 C 46 -150.484375 46.664062 -146.859375 48 -143.609375 C 49.332031 -140.359375 51.5 -137.273438 54.5 -134.359375 C 57.5 -131.441406 61.414062 -128.523438 66.25 -125.609375 C 71.082031 -122.703125 77.082031 -119.664062 84.25 -116.5 C 96.582031 -111 106.828125 -105.875 114.984375 -101.125 C 123.148438 -96.375 129.648438 -91.625 134.484375 -86.875 C 139.316406 -82.125 142.734375 -77.125 144.734375 -71.875 C 146.734375 -66.625 147.734375 -60.75 147.734375 -54.25 C 147.734375 -45.914062 146.066406 -38.25 142.734375 -31.25 C 139.398438 -24.25 134.734375 -18.25 128.734375 -13.25 C 122.742188 -8.25 115.582031 -4.375 107.25 -1.625 C 98.914062 1.125 89.75 2.5 79.75 2.5 C 70.25 2.5 61.707031 1.164062 54.125 -1.5 C 46.539062 -4.164062 38.832031 -8.664062 31 -15 L 24 -2.75 L 18.25 -2.75 Z M 14.5 -58.75 "/></g></g></g><g clip-path="url(#e2cff615ac)"><g clip-path="url(#85c8b06498)"><g transform="matrix(1, 0, 0, 1, 176, 391)"><g clip-path="url(#511d4ec0c5)"><g clip-path="url(#0f39bc5e67)"><g clip-path="url(#ce69b998fc)"><path fill="#037800" d="M 0.460938 0.875 L 1087.554688 0.875 L 1087.554688 15.875 L 0.460938 15.875 Z M 0.460938 0.875 " fill-opacity="1" fill-rule="nonzero"/></g></g></g></g></g></g><g fill="#023d00" fill-opacity="1"><g transform="translate(239.465442, 507.383226)"><g><path d="M 18.71875 -11.453125 C 18.71875 -9.628906 18.828125 -8.148438 19.046875 -7.015625 C 19.265625 -5.890625 19.734375 -5.023438 20.453125 -4.421875 C 21.171875 -3.828125 22.1875 -3.410156 23.5 -3.171875 C 24.820312 -2.929688 26.566406 -2.785156 28.734375 -2.734375 L 28.734375 0 L 3.234375 0 L 3.234375 -2.734375 C 4.921875 -2.785156 6.28125 -2.929688 7.3125 -3.171875 C 8.34375 -3.410156 9.144531 -3.816406 9.71875 -4.390625 C 10.289062 -4.960938 10.671875 -5.773438 10.859375 -6.828125 C 11.054688 -7.890625 11.15625 -9.257812 11.15625 -10.9375 L 11.15625 -44.5 C 11.15625 -46.175781 11.070312 -47.53125 10.90625 -48.5625 C 10.738281 -49.59375 10.398438 -50.40625 9.890625 -51 C 9.390625 -51.601562 8.660156 -52.015625 7.703125 -52.234375 C 6.742188 -52.453125 5.492188 -52.609375 3.953125 -52.703125 L 3.953125 -55.4375 L 45.578125 -55.4375 L 46.375 -41.6875 L 43.84375 -41.6875 C 43.5625 -43.75 43.109375 -45.441406 42.484375 -46.765625 C 41.859375 -48.085938 40.976562 -49.128906 39.84375 -49.890625 C 38.71875 -50.660156 37.289062 -51.203125 35.5625 -51.515625 C 33.832031 -51.828125 31.675781 -51.984375 29.09375 -51.984375 L 19.9375 -51.984375 C 19.125 -51.984375 18.71875 -51.578125 18.71875 -50.765625 L 18.71875 -29.015625 C 21.019531 -29.015625 23 -29.144531 24.65625 -29.40625 C 26.3125 -29.675781 27.679688 -30.144531 28.765625 -30.8125 C 29.847656 -31.488281 30.675781 -32.398438 31.25 -33.546875 C 31.820312 -34.703125 32.179688 -36.191406 32.328125 -38.015625 L 34.84375 -38.015625 L 34.84375 -16.921875 L 32.328125 -16.921875 C 32.085938 -18.742188 31.703125 -20.253906 31.171875 -21.453125 C 30.648438 -22.648438 29.867188 -23.582031 28.828125 -24.25 C 27.796875 -24.925781 26.460938 -25.410156 24.828125 -25.703125 C 23.203125 -25.992188 21.164062 -26.140625 18.71875 -26.140625 Z M 18.71875 -11.453125 "/></g></g></g><g fill="#023d00" fill-opacity="1"><g transform="translate(287.705423, 507.383226)"><g><path d="M 51.984375 -22.3125 C 51.984375 -18.519531 51.609375 -15.179688 50.859375 -12.296875 C 50.117188 -9.421875 48.921875 -7.023438 47.265625 -5.109375 C 45.609375 -3.191406 43.457031 -1.738281 40.8125 -0.75 C 38.175781 0.226562 34.988281 0.71875 31.25 0.71875 C 27.695312 0.71875 24.597656 0.367188 21.953125 -0.328125 C 19.316406 -1.023438 17.109375 -2.175781 15.328125 -3.78125 C 13.554688 -5.382812 12.238281 -7.484375 11.375 -10.078125 C 10.507812 -12.671875 10.078125 -15.863281 10.078125 -19.65625 L 10.078125 -38.65625 C 10.078125 -42.207031 9.992188 -44.941406 9.828125 -46.859375 C 9.660156 -48.785156 9.171875 -50.207031 8.359375 -51.125 C 7.773438 -51.75 6.988281 -52.164062 6 -52.375 C 5.019531 -52.59375 3.71875 -52.703125 2.09375 -52.703125 L 2.09375 -55.4375 L 26.640625 -55.4375 L 26.640625 -52.703125 C 25.003906 -52.703125 23.679688 -52.601562 22.671875 -52.40625 C 21.671875 -52.21875 20.878906 -51.738281 20.296875 -50.96875 C 19.628906 -50.113281 19.195312 -48.734375 19 -46.828125 C 18.8125 -44.929688 18.71875 -42.207031 18.71875 -38.65625 L 18.71875 -19.078125 C 18.71875 -16.628906 18.96875 -14.457031 19.46875 -12.5625 C 19.976562 -10.664062 20.804688 -9.054688 21.953125 -7.734375 C 23.109375 -6.421875 24.609375 -5.425781 26.453125 -4.75 C 28.304688 -4.082031 30.578125 -3.75 33.265625 -3.75 C 38.066406 -3.75 41.664062 -5.078125 44.0625 -7.734375 C 46.457031 -10.398438 47.65625 -14.328125 47.65625 -19.515625 L 47.65625 -36.859375 C 47.65625 -41.128906 47.488281 -44.367188 47.15625 -46.578125 C 46.820312 -48.785156 46.195312 -50.347656 45.28125 -51.265625 C 44.613281 -51.890625 43.773438 -52.285156 42.765625 -52.453125 C 41.753906 -52.617188 40.507812 -52.703125 39.03125 -52.703125 L 39.03125 -55.4375 L 59.90625 -55.4375 L 59.90625 -52.703125 C 58.363281 -52.703125 57.097656 -52.582031 56.109375 -52.34375 C 55.128906 -52.101562 54.351562 -51.578125 53.78125 -50.765625 C 53.0625 -49.753906 52.582031 -48.179688 52.34375 -46.046875 C 52.101562 -43.910156 51.984375 -40.847656 51.984375 -36.859375 Z M 51.984375 -22.3125 "/></g></g></g><g fill="#023d00" fill-opacity="1"><g transform="translate(349.69739, 507.383226)"><g><path d="M 18.71875 -30.453125 C 21.3125 -30.453125 23.484375 -30.609375 25.234375 -30.921875 C 26.984375 -31.234375 28.375 -31.722656 29.40625 -32.390625 C 30.4375 -33.066406 31.179688 -33.929688 31.640625 -34.984375 C 32.097656 -36.046875 32.328125 -37.296875 32.328125 -38.734375 L 34.84375 -38.734375 L 34.84375 -19.078125 L 32.328125 -19.078125 C 32.328125 -20.515625 32.125 -21.757812 31.71875 -22.8125 C 31.3125 -23.875 30.59375 -24.753906 29.5625 -25.453125 C 28.53125 -26.148438 27.132812 -26.675781 25.375 -27.03125 C 23.625 -27.394531 21.40625 -27.578125 18.71875 -27.578125 L 18.71875 -11.296875 C 18.71875 -9.710938 18.910156 -8.40625 19.296875 -7.375 C 19.679688 -6.34375 20.34375 -5.503906 21.28125 -4.859375 C 22.21875 -4.210938 23.453125 -3.753906 24.984375 -3.484375 C 26.515625 -3.222656 28.410156 -3.09375 30.671875 -3.09375 C 33.210938 -3.09375 35.367188 -3.269531 37.140625 -3.625 C 38.921875 -3.988281 40.410156 -4.601562 41.609375 -5.46875 C 42.816406 -6.332031 43.78125 -7.472656 44.5 -8.890625 C 45.21875 -10.304688 45.816406 -12.070312 46.296875 -14.1875 L 49.03125 -14.1875 L 47.953125 0 L 3.234375 0 L 3.234375 -2.734375 C 4.921875 -2.785156 6.28125 -2.929688 7.3125 -3.171875 C 8.34375 -3.410156 9.144531 -3.816406 9.71875 -4.390625 C 10.289062 -4.960938 10.671875 -5.773438 10.859375 -6.828125 C 11.054688 -7.890625 11.15625 -9.257812 11.15625 -10.9375 L 11.15625 -44.5 C 11.15625 -46.175781 11.070312 -47.53125 10.90625 -48.5625 C 10.738281 -49.59375 10.398438 -50.40625 9.890625 -51 C 9.390625 -51.601562 8.660156 -52.015625 7.703125 -52.234375 C 6.742188 -52.453125 5.492188 -52.609375 3.953125 -52.703125 L 3.953125 -55.4375 L 45.578125 -55.4375 L 46.21875 -42.765625 L 43.703125 -42.765625 C 43.410156 -44.679688 42.941406 -46.25 42.296875 -47.46875 C 41.648438 -48.695312 40.757812 -49.671875 39.625 -50.390625 C 38.5 -51.117188 37.070312 -51.625 35.34375 -51.90625 C 33.625 -52.195312 31.539062 -52.34375 29.09375 -52.34375 L 19.9375 -52.34375 C 19.125 -52.34375 18.71875 -51.9375 18.71875 -51.125 Z M 18.71875 -30.453125 "/></g></g></g><g fill="#023d00" fill-opacity="1"><g transform="translate(401.969364, 507.383226)"><g><path d="M 49.75 0 L 3.234375 0 L 3.234375 -2.734375 C 4.921875 -2.785156 6.28125 -2.929688 7.3125 -3.171875 C 8.34375 -3.410156 9.144531 -3.816406 9.71875 -4.390625 C 10.289062 -4.960938 10.671875 -5.773438 10.859375 -6.828125 C 11.054688 -7.890625 11.15625 -9.257812 11.15625 -10.9375 L 11.15625 -44.5 C 11.15625 -46.175781 11.070312 -47.53125 10.90625 -48.5625 C 10.738281 -49.59375 10.398438 -50.40625 9.890625 -51 C 9.390625 -51.601562 8.660156 -52.015625 7.703125 -52.234375 C 6.742188 -52.453125 5.492188 -52.609375 3.953125 -52.703125 L 3.953125 -55.4375 L 25.84375 -55.4375 L 25.84375 -52.703125 C 24.3125 -52.648438 23.078125 -52.503906 22.140625 -52.265625 C 21.203125 -52.023438 20.476562 -51.59375 19.96875 -50.96875 C 19.46875 -50.351562 19.132812 -49.492188 18.96875 -48.390625 C 18.800781 -47.285156 18.71875 -45.816406 18.71875 -43.984375 L 18.71875 -12.953125 C 18.71875 -10.941406 18.921875 -9.300781 19.328125 -8.03125 C 19.734375 -6.757812 20.425781 -5.773438 21.40625 -5.078125 C 22.394531 -4.378906 23.707031 -3.894531 25.34375 -3.625 C 26.976562 -3.363281 29.039062 -3.234375 31.53125 -3.234375 C 34.269531 -3.234375 36.570312 -3.390625 38.4375 -3.703125 C 40.3125 -4.015625 41.882812 -4.566406 43.15625 -5.359375 C 44.4375 -6.148438 45.445312 -7.253906 46.1875 -8.671875 C 46.925781 -10.085938 47.5625 -11.925781 48.09375 -14.1875 L 50.828125 -14.1875 Z M 49.75 0 "/></g></g></g><g fill="#023d00" fill-opacity="1"><g transform="translate(454.313333, 507.383226)"><g/></g></g><g fill="#023d00" fill-opacity="1"><g transform="translate(474.977333, 507.383226)"><g><path d="M 8.203125 -46.515625 C 7.484375 -47.765625 6.8125 -48.785156 6.1875 -49.578125 C 5.5625 -50.367188 4.925781 -51.003906 4.28125 -51.484375 C 3.632812 -51.960938 2.953125 -52.285156 2.234375 -52.453125 C 1.515625 -52.617188 0.648438 -52.703125 -0.359375 -52.703125 L -0.359375 -55.4375 L 22.3125 -55.4375 L 22.3125 -52.703125 C 19.914062 -52.703125 18.222656 -52.519531 17.234375 -52.15625 C 16.253906 -51.800781 15.765625 -51.164062 15.765625 -50.25 C 15.765625 -49.25 16.316406 -47.8125 17.421875 -45.9375 L 28.578125 -26.859375 L 28.875 -26.859375 L 37.015625 -40.53125 C 38.546875 -43.125 39.632812 -45.164062 40.28125 -46.65625 C 40.925781 -48.144531 41.25 -49.34375 41.25 -50.25 C 41.25 -51.164062 40.898438 -51.800781 40.203125 -52.15625 C 39.515625 -52.519531 38.304688 -52.703125 36.578125 -52.703125 L 36.578125 -55.4375 L 53.0625 -55.4375 L 53.0625 -52.703125 C 52.050781 -52.703125 51.148438 -52.554688 50.359375 -52.265625 C 49.566406 -51.984375 48.738281 -51.410156 47.875 -50.546875 C 47.007812 -49.679688 46.0625 -48.476562 45.03125 -46.9375 C 44 -45.40625 42.738281 -43.390625 41.25 -40.890625 L 30.171875 -22.171875 L 30.171875 -13.609375 C 30.171875 -11.253906 30.253906 -9.367188 30.421875 -7.953125 C 30.585938 -6.535156 30.945312 -5.441406 31.5 -4.671875 C 32.050781 -3.910156 32.84375 -3.394531 33.875 -3.125 C 34.90625 -2.863281 36.285156 -2.734375 38.015625 -2.734375 L 38.015625 0 L 14.6875 0 L 14.6875 -2.734375 C 16.414062 -2.734375 17.796875 -2.863281 18.828125 -3.125 C 19.859375 -3.394531 20.648438 -3.898438 21.203125 -4.640625 C 21.753906 -5.390625 22.125 -6.4375 22.3125 -7.78125 C 22.507812 -9.125 22.609375 -10.898438 22.609375 -13.109375 L 22.609375 -21.890625 Z M 8.203125 -46.515625 "/></g></g></g><g fill="#023d00" fill-opacity="1"><g transform="translate(527.753293, 507.383226)"><g><path d="M 34.0625 -56.15625 C 38.28125 -56.15625 42.210938 -55.410156 45.859375 -53.921875 C 49.515625 -52.441406 52.6875 -50.40625 55.375 -47.8125 C 58.0625 -45.21875 60.171875 -42.164062 61.703125 -38.65625 C 63.242188 -35.15625 64.015625 -31.363281 64.015625 -27.28125 C 64.015625 -23.394531 63.234375 -19.75 61.671875 -16.34375 C 60.109375 -12.9375 57.984375 -9.972656 55.296875 -7.453125 C 52.609375 -4.929688 49.4375 -2.9375 45.78125 -1.46875 C 42.132812 -0.0078125 38.226562 0.71875 34.0625 0.71875 C 29.882812 0.71875 25.96875 -0.0078125 22.3125 -1.46875 C 18.664062 -2.9375 15.5 -4.929688 12.8125 -7.453125 C 10.125 -9.972656 8 -12.9375 6.4375 -16.34375 C 4.882812 -19.75 4.109375 -23.394531 4.109375 -27.28125 C 4.109375 -31.363281 4.875 -35.15625 6.40625 -38.65625 C 7.945312 -42.164062 10.0625 -45.21875 12.75 -47.8125 C 15.4375 -50.40625 18.601562 -52.441406 22.25 -53.921875 C 25.894531 -55.410156 29.832031 -56.15625 34.0625 -56.15625 Z M 34.0625 -3.234375 C 37.226562 -3.234375 40.070312 -3.785156 42.59375 -4.890625 C 45.113281 -5.992188 47.269531 -7.578125 49.0625 -9.640625 C 50.863281 -11.710938 52.242188 -14.222656 53.203125 -17.171875 C 54.160156 -20.117188 54.640625 -23.421875 54.640625 -27.078125 C 54.640625 -30.910156 54.160156 -34.375 53.203125 -37.46875 C 52.242188 -40.570312 50.875 -43.210938 49.09375 -45.390625 C 47.320312 -47.578125 45.164062 -49.257812 42.625 -50.4375 C 40.082031 -51.613281 37.226562 -52.203125 34.0625 -52.203125 C 30.882812 -52.203125 28.023438 -51.613281 25.484375 -50.4375 C 22.941406 -49.257812 20.78125 -47.578125 19 -45.390625 C 17.226562 -43.210938 15.863281 -40.570312 14.90625 -37.46875 C 13.945312 -34.375 13.46875 -30.910156 13.46875 -27.078125 C 13.46875 -23.421875 13.945312 -20.117188 14.90625 -17.171875 C 15.863281 -14.222656 17.226562 -11.710938 19 -9.640625 C 20.78125 -7.578125 22.941406 -5.992188 25.484375 -4.890625 C 28.023438 -3.785156 30.882812 -3.234375 34.0625 -3.234375 Z M 34.0625 -3.234375 "/></g></g></g><g fill="#023d00" fill-opacity="1"><g transform="translate(595.865251, 507.383226)"><g><path d="M 51.984375 -22.3125 C 51.984375 -18.519531 51.609375 -15.179688 50.859375 -12.296875 C 50.117188 -9.421875 48.921875 -7.023438 47.265625 -5.109375 C 45.609375 -3.191406 43.457031 -1.738281 40.8125 -0.75 C 38.175781 0.226562 34.988281 0.71875 31.25 0.71875 C 27.695312 0.71875 24.597656 0.367188 21.953125 -0.328125 C 19.316406 -1.023438 17.109375 -2.175781 15.328125 -3.78125 C 13.554688 -5.382812 12.238281 -7.484375 11.375 -10.078125 C 10.507812 -12.671875 10.078125 -15.863281 10.078125 -19.65625 L 10.078125 -38.65625 C 10.078125 -42.207031 9.992188 -44.941406 9.828125 -46.859375 C 9.660156 -48.785156 9.171875 -50.207031 8.359375 -51.125 C 7.773438 -51.75 6.988281 -52.164062 6 -52.375 C 5.019531 -52.59375 3.71875 -52.703125 2.09375 -52.703125 L 2.09375 -55.4375 L 26.640625 -55.4375 L 26.640625 -52.703125 C 25.003906 -52.703125 23.679688 -52.601562 22.671875 -52.40625 C 21.671875 -52.21875 20.878906 -51.738281 20.296875 -50.96875 C 19.628906 -50.113281 19.195312 -48.734375 19 -46.828125 C 18.8125 -44.929688 18.71875 -42.207031 18.71875 -38.65625 L 18.71875 -19.078125 C 18.71875 -16.628906 18.96875 -14.457031 19.46875 -12.5625 C 19.976562 -10.664062 20.804688 -9.054688 21.953125 -7.734375 C 23.109375 -6.421875 24.609375 -5.425781 26.453125 -4.75 C 28.304688 -4.082031 30.578125 -3.75 33.265625 -3.75 C 38.066406 -3.75 41.664062 -5.078125 44.0625 -7.734375 C 46.457031 -10.398438 47.65625 -14.328125 47.65625 -19.515625 L 47.65625 -36.859375 C 47.65625 -41.128906 47.488281 -44.367188 47.15625 -46.578125 C 46.820312 -48.785156 46.195312 -50.347656 45.28125 -51.265625 C 44.613281 -51.890625 43.773438 -52.285156 42.765625 -52.453125 C 41.753906 -52.617188 40.507812 -52.703125 39.03125 -52.703125 L 39.03125 -55.4375 L 59.90625 -55.4375 L 59.90625 -52.703125 C 58.363281 -52.703125 57.097656 -52.582031 56.109375 -52.34375 C 55.128906 -52.101562 54.351562 -51.578125 53.78125 -50.765625 C 53.0625 -49.753906 52.582031 -48.179688 52.34375 -46.046875 C 52.101562 -43.910156 51.984375 -40.847656 51.984375 -36.859375 Z M 51.984375 -22.3125 "/></g></g></g><g fill="#023d00" fill-opacity="1"><g transform="translate(657.857206, 507.383226)"><g><path d="M 47.375 -41.546875 C 47.375 -37.703125 46.222656 -34.507812 43.921875 -31.96875 C 41.617188 -29.425781 37.945312 -27.722656 32.90625 -26.859375 L 48.8125 -7.703125 C 50.113281 -6.117188 51.539062 -4.976562 53.09375 -4.28125 C 54.65625 -3.582031 56.519531 -3.066406 58.6875 -2.734375 L 58.6875 0 L 44.78125 0 L 27.140625 -22.609375 C 26.515625 -23.421875 25.925781 -24.066406 25.375 -24.546875 C 24.820312 -25.023438 24.242188 -25.394531 23.640625 -25.65625 C 23.046875 -25.925781 22.351562 -26.097656 21.5625 -26.171875 C 20.769531 -26.242188 19.820312 -26.28125 18.71875 -26.28125 L 18.71875 -11.296875 C 18.71875 -9.523438 18.828125 -8.070312 19.046875 -6.9375 C 19.265625 -5.8125 19.71875 -4.9375 20.40625 -4.3125 C 21.101562 -3.695312 22.113281 -3.28125 23.4375 -3.0625 C 24.757812 -2.84375 26.5 -2.734375 28.65625 -2.734375 L 28.65625 0 L 3.234375 0 L 3.234375 -2.734375 C 4.921875 -2.785156 6.28125 -2.929688 7.3125 -3.171875 C 8.34375 -3.410156 9.144531 -3.816406 9.71875 -4.390625 C 10.289062 -4.960938 10.671875 -5.773438 10.859375 -6.828125 C 11.054688 -7.890625 11.15625 -9.257812 11.15625 -10.9375 L 11.15625 -44.5 C 11.15625 -46.175781 11.070312 -47.53125 10.90625 -48.5625 C 10.738281 -49.59375 10.398438 -50.40625 9.890625 -51 C 9.390625 -51.601562 8.660156 -52.015625 7.703125 -52.234375 C 6.742188 -52.453125 5.492188 -52.609375 3.953125 -52.703125 L 3.953125 -55.4375 L 26.5625 -55.4375 C 33.1875 -55.4375 38.3125 -54.210938 41.9375 -51.765625 C 45.5625 -49.316406 47.375 -45.910156 47.375 -41.546875 Z M 18.71875 -29.875 L 23.828125 -29.875 C 28.628906 -29.875 32.191406 -30.75 34.515625 -32.5 C 36.847656 -34.257812 38.015625 -37.15625 38.015625 -41.1875 C 38.015625 -45.070312 37.085938 -47.851562 35.234375 -49.53125 C 33.390625 -51.21875 30.5 -52.0625 26.5625 -52.0625 L 19.9375 -52.0625 C 19.125 -52.0625 18.71875 -51.648438 18.71875 -50.828125 Z M 18.71875 -29.875 "/></g></g></g><g fill="#023d00" fill-opacity="1"><g transform="translate(714.593211, 507.383226)"><g/></g></g><g fill="#023d00" fill-opacity="1"><g transform="translate(735.257166, 507.383226)"><g><path d="M 4.171875 -16.921875 L 6.84375 -16.921875 C 7.175781 -14.765625 7.8125 -12.820312 8.75 -11.09375 C 9.6875 -9.363281 10.863281 -7.894531 12.28125 -6.6875 C 13.695312 -5.488281 15.328125 -4.566406 17.171875 -3.921875 C 19.015625 -3.273438 21.019531 -2.953125 23.1875 -2.953125 C 26.738281 -2.953125 29.546875 -3.789062 31.609375 -5.46875 C 33.671875 -7.144531 34.703125 -9.425781 34.703125 -12.3125 C 34.703125 -13.507812 34.5 -14.613281 34.09375 -15.625 C 33.6875 -16.632812 33 -17.601562 32.03125 -18.53125 C 31.070312 -19.46875 29.789062 -20.394531 28.1875 -21.3125 C 26.582031 -22.226562 24.554688 -23.210938 22.109375 -24.265625 C 19.128906 -25.554688 16.628906 -26.800781 14.609375 -28 C 12.597656 -29.207031 10.988281 -30.457031 9.78125 -31.75 C 8.582031 -33.050781 7.734375 -34.429688 7.234375 -35.890625 C 6.734375 -37.359375 6.484375 -39.023438 6.484375 -40.890625 C 6.484375 -43.097656 6.878906 -45.140625 7.671875 -47.015625 C 8.460938 -48.890625 9.578125 -50.507812 11.015625 -51.875 C 12.453125 -53.238281 14.15625 -54.289062 16.125 -55.03125 C 18.09375 -55.78125 20.253906 -56.15625 22.609375 -56.15625 C 24.722656 -56.15625 26.691406 -55.816406 28.515625 -55.140625 C 30.335938 -54.472656 32.1875 -53.394531 34.0625 -51.90625 L 35.921875 -55.15625 L 37.578125 -55.15625 L 38.375 -40.828125 L 35.71875 -40.828125 C 34.5625 -44.765625 32.890625 -47.691406 30.703125 -49.609375 C 28.523438 -51.523438 25.898438 -52.484375 22.828125 -52.484375 C 19.898438 -52.484375 17.570312 -51.765625 15.84375 -50.328125 C 14.113281 -48.890625 13.25 -46.945312 13.25 -44.5 C 13.25 -43.34375 13.441406 -42.296875 13.828125 -41.359375 C 14.210938 -40.421875 14.832031 -39.53125 15.6875 -38.6875 C 16.550781 -37.851562 17.679688 -37.015625 19.078125 -36.171875 C 20.472656 -35.335938 22.203125 -34.460938 24.265625 -33.546875 C 27.816406 -31.960938 30.765625 -30.488281 33.109375 -29.125 C 35.460938 -27.757812 37.335938 -26.390625 38.734375 -25.015625 C 40.128906 -23.648438 41.113281 -22.210938 41.6875 -20.703125 C 42.257812 -19.191406 42.546875 -17.5 42.546875 -15.625 C 42.546875 -13.226562 42.066406 -11.019531 41.109375 -9 C 40.148438 -6.976562 38.804688 -5.25 37.078125 -3.8125 C 35.347656 -2.375 33.28125 -1.257812 30.875 -0.46875 C 28.476562 0.320312 25.84375 0.71875 22.96875 0.71875 C 20.226562 0.71875 17.765625 0.335938 15.578125 -0.421875 C 13.398438 -1.191406 11.179688 -2.488281 8.921875 -4.3125 L 6.90625 -0.796875 L 5.25 -0.796875 Z M 4.171875 -16.921875 "/></g></g></g><g fill="#023d00" fill-opacity="1"><g transform="translate(781.69715, 507.383226)"><g><path d="M 56.59375 -41.6875 L 53.640625 -41.6875 C 53.492188 -43.75 53.15625 -45.472656 52.625 -46.859375 C 52.101562 -48.253906 51.347656 -49.347656 50.359375 -50.140625 C 49.378906 -50.941406 48.144531 -51.507812 46.65625 -51.84375 C 45.164062 -52.175781 43.390625 -52.34375 41.328125 -52.34375 C 39.546875 -52.34375 38.113281 -52.304688 37.03125 -52.234375 C 35.957031 -52.160156 35.132812 -52.023438 34.5625 -51.828125 C 33.988281 -51.640625 33.613281 -51.414062 33.4375 -51.15625 C 33.269531 -50.894531 33.1875 -50.546875 33.1875 -50.109375 L 33.1875 -11.59375 C 33.1875 -10.050781 33.296875 -8.726562 33.515625 -7.625 C 33.734375 -6.519531 34.164062 -5.617188 34.8125 -4.921875 C 35.457031 -4.234375 36.390625 -3.707031 37.609375 -3.34375 C 38.835938 -2.988281 40.460938 -2.785156 42.484375 -2.734375 L 42.484375 0 L 15.265625 0 L 15.265625 -2.734375 C 17.273438 -2.785156 18.90625 -2.988281 20.15625 -3.34375 C 21.40625 -3.707031 22.351562 -4.234375 23 -4.921875 C 23.644531 -5.617188 24.078125 -6.519531 24.296875 -7.625 C 24.515625 -8.726562 24.625 -10.050781 24.625 -11.59375 L 24.625 -50.109375 C 24.625 -50.546875 24.539062 -50.894531 24.375 -51.15625 C 24.207031 -51.414062 23.867188 -51.640625 23.359375 -51.828125 C 22.859375 -52.023438 22.148438 -52.160156 21.234375 -52.234375 C 20.328125 -52.304688 19.101562 -52.34375 17.5625 -52.34375 C 15.695312 -52.34375 13.957031 -52.269531 12.34375 -52.125 C 10.738281 -51.976562 9.347656 -51.554688 8.171875 -50.859375 C 6.992188 -50.171875 6.046875 -49.101562 5.328125 -47.65625 C 4.609375 -46.21875 4.222656 -44.226562 4.171875 -41.6875 L 1.515625 -41.6875 L 1.515625 -55.4375 L 55.875 -55.4375 Z M 56.59375 -41.6875 "/></g></g></g><g fill="#023d00" fill-opacity="1"><g transform="translate(839.513112, 507.383226)"><g><path d="M 47.375 -41.546875 C 47.375 -37.703125 46.222656 -34.507812 43.921875 -31.96875 C 41.617188 -29.425781 37.945312 -27.722656 32.90625 -26.859375 L 48.8125 -7.703125 C 50.113281 -6.117188 51.539062 -4.976562 53.09375 -4.28125 C 54.65625 -3.582031 56.519531 -3.066406 58.6875 -2.734375 L 58.6875 0 L 44.78125 0 L 27.140625 -22.609375 C 26.515625 -23.421875 25.925781 -24.066406 25.375 -24.546875 C 24.820312 -25.023438 24.242188 -25.394531 23.640625 -25.65625 C 23.046875 -25.925781 22.351562 -26.097656 21.5625 -26.171875 C 20.769531 -26.242188 19.820312 -26.28125 18.71875 -26.28125 L 18.71875 -11.296875 C 18.71875 -9.523438 18.828125 -8.070312 19.046875 -6.9375 C 19.265625 -5.8125 19.71875 -4.9375 20.40625 -4.3125 C 21.101562 -3.695312 22.113281 -3.28125 23.4375 -3.0625 C 24.757812 -2.84375 26.5 -2.734375 28.65625 -2.734375 L 28.65625 0 L 3.234375 0 L 3.234375 -2.734375 C 4.921875 -2.785156 6.28125 -2.929688 7.3125 -3.171875 C 8.34375 -3.410156 9.144531 -3.816406 9.71875 -4.390625 C 10.289062 -4.960938 10.671875 -5.773438 10.859375 -6.828125 C 11.054688 -7.890625 11.15625 -9.257812 11.15625 -10.9375 L 11.15625 -44.5 C 11.15625 -46.175781 11.070312 -47.53125 10.90625 -48.5625 C 10.738281 -49.59375 10.398438 -50.40625 9.890625 -51 C 9.390625 -51.601562 8.660156 -52.015625 7.703125 -52.234375 C 6.742188 -52.453125 5.492188 -52.609375 3.953125 -52.703125 L 3.953125 -55.4375 L 26.5625 -55.4375 C 33.1875 -55.4375 38.3125 -54.210938 41.9375 -51.765625 C 45.5625 -49.316406 47.375 -45.910156 47.375 -41.546875 Z M 18.71875 -29.875 L 23.828125 -29.875 C 28.628906 -29.875 32.191406 -30.75 34.515625 -32.5 C 36.847656 -34.257812 38.015625 -37.15625 38.015625 -41.1875 C 38.015625 -45.070312 37.085938 -47.851562 35.234375 -49.53125 C 33.390625 -51.21875 30.5 -52.0625 26.5625 -52.0625 L 19.9375 -52.0625 C 19.125 -52.0625 18.71875 -51.648438 18.71875 -50.828125 Z M 18.71875 -29.875 "/></g></g></g><g fill="#023d00" fill-opacity="1"><g transform="translate(896.249116, 507.383226)"><g><path d="M 18.71875 -30.453125 C 21.3125 -30.453125 23.484375 -30.609375 25.234375 -30.921875 C 26.984375 -31.234375 28.375 -31.722656 29.40625 -32.390625 C 30.4375 -33.066406 31.179688 -33.929688 31.640625 -34.984375 C 32.097656 -36.046875 32.328125 -37.296875 32.328125 -38.734375 L 34.84375 -38.734375 L 34.84375 -19.078125 L 32.328125 -19.078125 C 32.328125 -20.515625 32.125 -21.757812 31.71875 -22.8125 C 31.3125 -23.875 30.59375 -24.753906 29.5625 -25.453125 C 28.53125 -26.148438 27.132812 -26.675781 25.375 -27.03125 C 23.625 -27.394531 21.40625 -27.578125 18.71875 -27.578125 L 18.71875 -11.296875 C 18.71875 -9.710938 18.910156 -8.40625 19.296875 -7.375 C 19.679688 -6.34375 20.34375 -5.503906 21.28125 -4.859375 C 22.21875 -4.210938 23.453125 -3.753906 24.984375 -3.484375 C 26.515625 -3.222656 28.410156 -3.09375 30.671875 -3.09375 C 33.210938 -3.09375 35.367188 -3.269531 37.140625 -3.625 C 38.921875 -3.988281 40.410156 -4.601562 41.609375 -5.46875 C 42.816406 -6.332031 43.78125 -7.472656 44.5 -8.890625 C 45.21875 -10.304688 45.816406 -12.070312 46.296875 -14.1875 L 49.03125 -14.1875 L 47.953125 0 L 3.234375 0 L 3.234375 -2.734375 C 4.921875 -2.785156 6.28125 -2.929688 7.3125 -3.171875 C 8.34375 -3.410156 9.144531 -3.816406 9.71875 -4.390625 C 10.289062 -4.960938 10.671875 -5.773438 10.859375 -6.828125 C 11.054688 -7.890625 11.15625 -9.257812 11.15625 -10.9375 L 11.15625 -44.5 C 11.15625 -46.175781 11.070312 -47.53125 10.90625 -48.5625 C 10.738281 -49.59375 10.398438 -50.40625 9.890625 -51 C 9.390625 -51.601562 8.660156 -52.015625 7.703125 -52.234375 C 6.742188 -52.453125 5.492188 -52.609375 3.953125 -52.703125 L 3.953125 -55.4375 L 45.578125 -55.4375 L 46.21875 -42.765625 L 43.703125 -42.765625 C 43.410156 -44.679688 42.941406 -46.25 42.296875 -47.46875 C 41.648438 -48.695312 40.757812 -49.671875 39.625 -50.390625 C 38.5 -51.117188 37.070312 -51.625 35.34375 -51.90625 C 33.625 -52.195312 31.539062 -52.34375 29.09375 -52.34375 L 19.9375 -52.34375 C 19.125 -52.34375 18.71875 -51.9375 18.71875 -51.125 Z M 18.71875 -30.453125 "/></g></g></g><g fill="#023d00" fill-opacity="1"><g transform="translate(948.521102, 507.383226)"><g><path d="M 49.96875 0.71875 L 15.765625 -44.359375 L 15.484375 -44.359375 L 15.484375 -13.609375 C 15.484375 -11.210938 15.566406 -9.316406 15.734375 -7.921875 C 15.898438 -6.523438 16.234375 -5.441406 16.734375 -4.671875 C 17.242188 -3.910156 17.960938 -3.410156 18.890625 -3.171875 C 19.828125 -2.929688 21.066406 -2.785156 22.609375 -2.734375 L 22.609375 0 L 3.234375 0 L 3.234375 -2.734375 C 4.921875 -2.785156 6.28125 -2.941406 7.3125 -3.203125 C 8.34375 -3.460938 9.144531 -3.953125 9.71875 -4.671875 C 10.289062 -5.398438 10.671875 -6.421875 10.859375 -7.734375 C 11.054688 -9.054688 11.15625 -10.847656 11.15625 -13.109375 L 11.15625 -42.34375 C 11.15625 -44.351562 11.070312 -46.015625 10.90625 -47.328125 C 10.738281 -48.648438 10.398438 -49.695312 9.890625 -50.46875 C 9.390625 -51.238281 8.660156 -51.78125 7.703125 -52.09375 C 6.742188 -52.40625 5.492188 -52.609375 3.953125 -52.703125 L 3.953125 -55.4375 L 18.21875 -55.4375 L 49.6875 -13.46875 L 49.96875 -13.46875 L 49.96875 -41.828125 C 49.96875 -44.179688 49.882812 -46.066406 49.71875 -47.484375 C 49.550781 -48.898438 49.210938 -49.988281 48.703125 -50.75 C 48.203125 -51.519531 47.484375 -52.023438 46.546875 -52.265625 C 45.609375 -52.503906 44.375 -52.648438 42.84375 -52.703125 L 42.84375 -55.4375 L 62.203125 -55.4375 L 62.203125 -52.703125 C 60.523438 -52.648438 59.171875 -52.492188 58.140625 -52.234375 C 57.109375 -51.972656 56.300781 -51.484375 55.71875 -50.765625 C 55.144531 -50.046875 54.757812 -49.007812 54.5625 -47.65625 C 54.375 -46.3125 54.28125 -44.539062 54.28125 -42.34375 L 54.28125 0.71875 Z M 49.96875 0.71875 "/></g></g></g><g fill="#023d00" fill-opacity="1"><g transform="translate(1013.465038, 507.383226)"><g><path d="M 30.8125 0.71875 C 26.738281 0.71875 23.066406 0.0703125 19.796875 -1.21875 C 16.535156 -2.519531 13.75 -4.359375 11.4375 -6.734375 C 9.132812 -9.109375 7.367188 -12 6.140625 -15.40625 C 4.921875 -18.8125 4.3125 -22.601562 4.3125 -26.78125 C 4.3125 -31.15625 4.984375 -35.140625 6.328125 -38.734375 C 7.679688 -42.335938 9.566406 -45.429688 11.984375 -48.015625 C 14.410156 -50.609375 17.316406 -52.613281 20.703125 -54.03125 C 24.085938 -55.445312 27.816406 -56.15625 31.890625 -56.15625 C 34.773438 -56.15625 37.488281 -55.75 40.03125 -54.9375 C 42.570312 -54.125 45.332031 -52.800781 48.3125 -50.96875 L 49.828125 -55.4375 L 52.34375 -55.4375 L 51.40625 -38.875 L 47.953125 -38.875 C 47.953125 -41.226562 47.503906 -43.253906 46.609375 -44.953125 C 45.722656 -46.660156 44.5625 -48.066406 43.125 -49.171875 C 41.6875 -50.273438 40.039062 -51.09375 38.1875 -51.625 C 36.34375 -52.15625 34.460938 -52.421875 32.546875 -52.421875 C 29.617188 -52.421875 27 -51.84375 24.6875 -50.6875 C 22.382812 -49.53125 20.441406 -47.875 18.859375 -45.71875 C 17.273438 -43.5625 16.0625 -40.921875 15.21875 -37.796875 C 14.382812 -34.679688 13.96875 -31.15625 13.96875 -27.21875 C 13.96875 -19.488281 15.570312 -13.546875 18.78125 -9.390625 C 22 -5.242188 26.660156 -3.171875 32.765625 -3.171875 C 35.066406 -3.171875 37.128906 -3.445312 38.953125 -4 C 40.773438 -4.550781 42.320312 -5.289062 43.59375 -6.21875 C 44.863281 -7.15625 45.820312 -8.234375 46.46875 -9.453125 C 47.125 -10.679688 47.453125 -11.96875 47.453125 -13.3125 C 47.453125 -16.101562 46.882812 -17.988281 45.75 -18.96875 C 44.625 -19.957031 42.789062 -20.453125 40.25 -20.453125 L 40.25 -23.1875 L 60.703125 -23.1875 L 60.703125 -20.453125 C 59.546875 -20.453125 58.582031 -20.351562 57.8125 -20.15625 C 57.039062 -19.96875 56.425781 -19.617188 55.96875 -19.109375 C 55.519531 -18.609375 55.210938 -17.945312 55.046875 -17.125 C 54.878906 -16.3125 54.796875 -15.285156 54.796875 -14.046875 L 54.796875 -5.96875 C 53.878906 -5.96875 53.046875 -5.929688 52.296875 -5.859375 C 51.554688 -5.796875 50.78125 -5.628906 49.96875 -5.359375 C 49.15625 -5.097656 48.253906 -4.738281 47.265625 -4.28125 C 46.285156 -3.820312 45.125 -3.210938 43.78125 -2.453125 C 42.09375 -1.492188 40.15625 -0.722656 37.96875 -0.140625 C 35.789062 0.429688 33.40625 0.71875 30.8125 0.71875 Z M 30.8125 0.71875 "/></g></g></g><g fill="#023d00" fill-opacity="1"><g transform="translate(1076.105049, 507.383226)"><g><path d="M 56.59375 -41.6875 L 53.640625 -41.6875 C 53.492188 -43.75 53.15625 -45.472656 52.625 -46.859375 C 52.101562 -48.253906 51.347656 -49.347656 50.359375 -50.140625 C 49.378906 -50.941406 48.144531 -51.507812 46.65625 -51.84375 C 45.164062 -52.175781 43.390625 -52.34375 41.328125 -52.34375 C 39.546875 -52.34375 38.113281 -52.304688 37.03125 -52.234375 C 35.957031 -52.160156 35.132812 -52.023438 34.5625 -51.828125 C 33.988281 -51.640625 33.613281 -51.414062 33.4375 -51.15625 C 33.269531 -50.894531 33.1875 -50.546875 33.1875 -50.109375 L 33.1875 -11.59375 C 33.1875 -10.050781 33.296875 -8.726562 33.515625 -7.625 C 33.734375 -6.519531 34.164062 -5.617188 34.8125 -4.921875 C 35.457031 -4.234375 36.390625 -3.707031 37.609375 -3.34375 C 38.835938 -2.988281 40.460938 -2.785156 42.484375 -2.734375 L 42.484375 0 L 15.265625 0 L 15.265625 -2.734375 C 17.273438 -2.785156 18.90625 -2.988281 20.15625 -3.34375 C 21.40625 -3.707031 22.351562 -4.234375 23 -4.921875 C 23.644531 -5.617188 24.078125 -6.519531 24.296875 -7.625 C 24.515625 -8.726562 24.625 -10.050781 24.625 -11.59375 L 24.625 -50.109375 C 24.625 -50.546875 24.539062 -50.894531 24.375 -51.15625 C 24.207031 -51.414062 23.867188 -51.640625 23.359375 -51.828125 C 22.859375 -52.023438 22.148438 -52.160156 21.234375 -52.234375 C 20.328125 -52.304688 19.101562 -52.34375 17.5625 -52.34375 C 15.695312 -52.34375 13.957031 -52.269531 12.34375 -52.125 C 10.738281 -51.976562 9.347656 -51.554688 8.171875 -50.859375 C 6.992188 -50.171875 6.046875 -49.101562 5.328125 -47.65625 C 4.609375 -46.21875 4.222656 -44.226562 4.171875 -41.6875 L 1.515625 -41.6875 L 1.515625 -55.4375 L 55.875 -55.4375 Z M 56.59375 -41.6875 "/></g></g></g><g fill="#023d00" fill-opacity="1"><g transform="translate(1133.920965, 507.383226)"><g><path d="M 55.4375 -11.453125 C 55.4375 -9.628906 55.53125 -8.148438 55.71875 -7.015625 C 55.914062 -5.890625 56.289062 -5.023438 56.84375 -4.421875 C 57.394531 -3.828125 58.1875 -3.410156 59.21875 -3.171875 C 60.25 -2.929688 61.601562 -2.785156 63.28125 -2.734375 L 63.28125 0 L 39.953125 0 L 39.953125 -2.734375 C 41.640625 -2.785156 43 -2.929688 44.03125 -3.171875 C 45.0625 -3.410156 45.863281 -3.816406 46.4375 -4.390625 C 47.007812 -4.960938 47.390625 -5.773438 47.578125 -6.828125 C 47.773438 -7.890625 47.875 -9.257812 47.875 -10.9375 L 47.875 -26.5625 L 18.71875 -26.5625 L 18.71875 -11.453125 C 18.71875 -9.628906 18.8125 -8.148438 19 -7.015625 C 19.195312 -5.890625 19.570312 -5.023438 20.125 -4.421875 C 20.675781 -3.828125 21.46875 -3.410156 22.5 -3.171875 C 23.53125 -2.929688 24.882812 -2.785156 26.5625 -2.734375 L 26.5625 0 L 3.234375 0 L 3.234375 -2.734375 C 4.921875 -2.785156 6.28125 -2.929688 7.3125 -3.171875 C 8.34375 -3.410156 9.144531 -3.816406 9.71875 -4.390625 C 10.289062 -4.960938 10.671875 -5.773438 10.859375 -6.828125 C 11.054688 -7.890625 11.15625 -9.257812 11.15625 -10.9375 L 11.15625 -44.5 C 11.15625 -46.175781 11.070312 -47.53125 10.90625 -48.5625 C 10.738281 -49.59375 10.398438 -50.40625 9.890625 -51 C 9.390625 -51.601562 8.660156 -52.015625 7.703125 -52.234375 C 6.742188 -52.453125 5.492188 -52.609375 3.953125 -52.703125 L 3.953125 -55.4375 L 25.84375 -55.4375 L 25.84375 -52.703125 C 24.3125 -52.648438 23.078125 -52.503906 22.140625 -52.265625 C 21.203125 -52.023438 20.476562 -51.59375 19.96875 -50.96875 C 19.46875 -50.351562 19.132812 -49.492188 18.96875 -48.390625 C 18.800781 -47.285156 18.71875 -45.816406 18.71875 -43.984375 L 18.71875 -30.171875 L 47.875 -30.171875 L 47.875 -44.5 C 47.875 -46.175781 47.789062 -47.53125 47.625 -48.5625 C 47.457031 -49.59375 47.117188 -50.40625 46.609375 -51 C 46.109375 -51.601562 45.378906 -52.015625 44.421875 -52.234375 C 43.460938 -52.453125 42.21875 -52.609375 40.6875 -52.703125 L 40.6875 -55.4375 L 62.5625 -55.4375 L 62.5625 -52.703125 C 61.03125 -52.648438 59.796875 -52.503906 58.859375 -52.265625 C 57.921875 -52.023438 57.195312 -51.59375 56.6875 -50.96875 C 56.1875 -50.351562 55.851562 -49.492188 55.6875 -48.390625 C 55.519531 -47.285156 55.4375 -45.816406 55.4375 -43.984375 Z M 55.4375 -11.453125 "/></g></g></g><g fill="#000000" fill-opacity="1"><g transform="translate(1327.298963, 144.972514)"><g><path d="M 28.90625 -53.484375 L 27.28125 -53.484375 C 27.175781 -54.359375 27.046875 -55.0625 26.890625 -55.59375 C 26.734375 -56.132812 26.472656 -56.554688 26.109375 -56.859375 C 25.753906 -57.171875 25.296875 -57.378906 24.734375 -57.484375 C 24.171875 -57.585938 23.425781 -57.640625 22.5 -57.640625 C 21.375 -57.640625 20.601562 -57.523438 20.1875 -57.296875 C 19.78125 -57.066406 19.578125 -56.742188 19.578125 -56.328125 L 19.578125 -40.921875 C 19.578125 -39.429688 19.84375 -38.425781 20.375 -37.90625 C 20.914062 -37.394531 21.984375 -37.140625 23.578125 -37.140625 L 23.578125 -35.609375 L 11.171875 -35.609375 L 11.171875 -37.140625 C 12.765625 -37.140625 13.832031 -37.394531 14.375 -37.90625 C 14.914062 -38.425781 15.1875 -39.429688 15.1875 -40.921875 L 15.1875 -56.328125 C 15.1875 -56.742188 14.976562 -57.066406 14.5625 -57.296875 C 14.15625 -57.523438 13.359375 -57.640625 12.171875 -57.640625 C 10.222656 -57.640625 8.925781 -57.359375 8.28125 -56.796875 C 7.644531 -56.234375 7.273438 -55.128906 7.171875 -53.484375 L 5.625 -53.484375 L 5.625 -59.34375 L 28.90625 -59.34375 Z M 46.703125 -41.921875 L 54.328125 -59.34375 L 62.03125 -59.34375 L 62.03125 -57.796875 C 60.800781 -57.796875 59.976562 -57.488281 59.5625 -56.875 C 59.15625 -56.257812 58.953125 -55 58.953125 -53.09375 L 58.953125 -41.84375 C 58.953125 -40.8125 58.988281 -40 59.0625 -39.40625 C 59.144531 -38.820312 59.300781 -38.347656 59.53125 -37.984375 C 59.757812 -37.628906 60.101562 -37.398438 60.5625 -37.296875 C 61.03125 -37.191406 61.625 -37.140625 62.34375 -37.140625 L 62.34375 -35.609375 L 51.9375 -35.609375 L 51.9375 -37.140625 C 53.375 -37.140625 54.296875 -37.421875 54.703125 -37.984375 C 55.117188 -38.554688 55.328125 -39.765625 55.328125 -41.609375 L 55.328125 -55.484375 L 55.015625 -55.484375 L 46 -35.296875 L 45.390625 -35.296875 L 36.6875 -55.484375 L 36.375 -55.484375 L 36.375 -41.84375 C 36.375 -40.8125 36.410156 -39.988281 36.484375 -39.375 C 36.566406 -38.757812 36.722656 -38.285156 36.953125 -37.953125 C 37.179688 -37.617188 37.523438 -37.398438 37.984375 -37.296875 C 38.453125 -37.191406 39.046875 -37.140625 39.765625 -37.140625 L 39.765625 -35.609375 L 30.75 -35.609375 L 30.75 -37.140625 C 31.46875 -37.140625 32.054688 -37.191406 32.515625 -37.296875 C 32.984375 -37.398438 33.332031 -37.601562 33.5625 -37.90625 C 33.789062 -38.21875 33.941406 -38.671875 34.015625 -39.265625 C 34.097656 -39.859375 34.140625 -40.640625 34.140625 -41.609375 L 34.140625 -53.328125 C 34.140625 -55.128906 33.929688 -56.320312 33.515625 -56.90625 C 33.109375 -57.5 32.289062 -57.796875 31.0625 -57.796875 L 31.0625 -59.34375 L 39.375 -59.34375 L 46.390625 -41.921875 Z M 46.703125 -41.921875 "/></g></g></g><g transform="matrix(1, 0, 0, 1, 358, 101)"><g clip-path="url(#8b0595806b)"><g fill="#037800" fill-opacity="1"><g transform="translate(0.749965, 218.010315)"><g><path d="M 24.390625 -117.875 C 18.972656 -122.332031 14.421875 -127.269531 10.734375 -132.6875 C 7.054688 -138.101562 5.21875 -144.488281 5.21875 -151.84375 C 5.21875 -155.71875 5.894531 -160.265625 7.25 -165.484375 C 8.613281 -170.710938 11.179688 -175.84375 14.953125 -180.875 C 18.722656 -185.914062 23.992188 -190.128906 30.765625 -193.515625 C 37.546875 -196.898438 46.359375 -198.59375 57.203125 -198.59375 C 68.035156 -198.59375 77.953125 -197.039062 86.953125 -193.9375 C 95.953125 -190.84375 104.226562 -187.265625 111.78125 -183.203125 C 119.332031 -179.140625 126.15625 -175.554688 132.25 -172.453125 C 138.34375 -169.359375 143.910156 -167.8125 148.953125 -167.8125 C 155.722656 -167.8125 161.285156 -169.265625 165.640625 -172.171875 C 169.992188 -175.078125 173.234375 -178.707031 175.359375 -183.0625 C 177.492188 -187.414062 178.5625 -191.914062 178.5625 -196.5625 L 185.8125 -196.5625 C 185.8125 -183.207031 183.585938 -171.882812 179.140625 -162.59375 C 174.691406 -153.300781 168.929688 -145.75 161.859375 -139.9375 C 154.796875 -134.132812 147.25 -129.925781 139.21875 -127.3125 C 131.1875 -124.695312 123.585938 -123.390625 116.421875 -123.390625 C 108.296875 -123.390625 100.75 -124.210938 93.78125 -125.859375 C 86.8125 -127.503906 80.328125 -129.488281 74.328125 -131.8125 C 76.847656 -125.039062 80.234375 -120.101562 84.484375 -117 C 88.742188 -113.90625 93.34375 -111.773438 98.28125 -110.609375 C 103.21875 -109.453125 107.910156 -108.34375 112.359375 -107.28125 C 116.816406 -106.21875 120.445312 -104.332031 123.25 -101.625 C 126.050781 -98.914062 127.453125 -94.363281 127.453125 -87.96875 L 127.453125 0 L 63.875 0 L 63.875 -136.171875 C 58.257812 -138.691406 53.222656 -140.914062 48.765625 -142.84375 C 44.316406 -144.78125 40.445312 -145.75 37.15625 -145.75 C 32.519531 -145.75 29.234375 -144.203125 27.296875 -141.109375 C 25.359375 -138.015625 24.628906 -134.675781 25.109375 -131.09375 C 25.597656 -127.507812 27.097656 -124.75 29.609375 -122.8125 Z M 24.390625 -117.875 "/></g></g></g></g></g></svg>